<?xml version="1.0" encoding="UTF-8"?><svg xmlns="http://www.w3.org/2000/svg" xmlns:xlink="http://www.w3.org/1999/xlink" fill-opacity="1" color-rendering="auto" color-interpolation="auto" text-rendering="auto" stroke="black" stroke-linecap="square" width="1019" stroke-miterlimit="10" shape-rendering="auto" stroke-opacity="1" fill="black" stroke-dasharray="none" font-weight="normal" stroke-width="1" height="477" font-family="'Dialog'" font-style="normal" stroke-linejoin="miter" font-size="12px" stroke-dashoffset="0" image-rendering="auto">
  <!--Generated by ySVG 2.5-->
  <defs id="genericDefs"/>
  <g>
    <defs id="defs1">
      <linearGradient x1="79" gradientUnits="userSpaceOnUse" x2="262" y1="276" y2="342" id="linearGradient1" spreadMethod="reflect">
        <stop stop-opacity="1" stop-color="rgb(232,238,247)" offset="0%"/>
        <stop stop-opacity="1" stop-color="rgb(183,201,227)" offset="100%"/>
      </linearGradient>
      <linearGradient x1="320" gradientUnits="userSpaceOnUse" x2="503" y1="276" y2="342" id="linearGradient2" spreadMethod="reflect">
        <stop stop-opacity="1" stop-color="rgb(232,238,247)" offset="0%"/>
        <stop stop-opacity="1" stop-color="rgb(183,201,227)" offset="100%"/>
      </linearGradient>
      <linearGradient x1="625" gradientUnits="userSpaceOnUse" x2="1067.6666" y1="75" y2="267" id="linearGradient3" spreadMethod="reflect">
        <stop stop-opacity="1" stop-color="rgb(232,238,247)" offset="0%"/>
        <stop stop-opacity="1" stop-color="rgb(183,201,227)" offset="100%"/>
      </linearGradient>
      <linearGradient x1="625" gradientUnits="userSpaceOnUse" x2="1067.6666" y1="330" y2="522" id="linearGradient4" spreadMethod="reflect">
        <stop stop-opacity="1" stop-color="rgb(232,238,247)" offset="0%"/>
        <stop stop-opacity="1" stop-color="rgb(183,201,227)" offset="100%"/>
      </linearGradient>
      <linearGradient x1="648" gradientUnits="userSpaceOnUse" x2="831" y1="138" y2="204" id="linearGradient5" spreadMethod="reflect">
        <stop stop-opacity="1" stop-color="rgb(232,238,247)" offset="0%"/>
        <stop stop-opacity="1" stop-color="rgb(183,201,227)" offset="100%"/>
      </linearGradient>
      <linearGradient x1="660" gradientUnits="userSpaceOnUse" x2="843" y1="360" y2="426" id="linearGradient6" spreadMethod="reflect">
        <stop stop-opacity="1" stop-color="rgb(232,238,247)" offset="0%"/>
        <stop stop-opacity="1" stop-color="rgb(183,201,227)" offset="100%"/>
      </linearGradient>
      <linearGradient x1="856" gradientUnits="userSpaceOnUse" x2="1039" y1="138" y2="204" id="linearGradient7" spreadMethod="reflect">
        <stop stop-opacity="1" stop-color="rgb(232,238,247)" offset="0%"/>
        <stop stop-opacity="1" stop-color="rgb(183,201,227)" offset="100%"/>
      </linearGradient>
      <linearGradient x1="868" gradientUnits="userSpaceOnUse" x2="1051" y1="360" y2="426" id="linearGradient8" spreadMethod="reflect">
        <stop stop-opacity="1" stop-color="rgb(232,238,247)" offset="0%"/>
        <stop stop-opacity="1" stop-color="rgb(183,201,227)" offset="100%"/>
      </linearGradient>
      <linearGradient x1="868" gradientUnits="userSpaceOnUse" x2="1051" y1="446" y2="512" id="linearGradient9" spreadMethod="reflect">
        <stop stop-opacity="1" stop-color="rgb(232,238,247)" offset="0%"/>
        <stop stop-opacity="1" stop-color="rgb(183,201,227)" offset="100%"/>
      </linearGradient>
      <clipPath clipPathUnits="userSpaceOnUse" id="clipPath1">
        <path d="M0 0 L1019 0 L1019 477 L0 477 L0 0 Z"/>
      </clipPath>
      <clipPath clipPathUnits="userSpaceOnUse" id="clipPath2">
        <path d="M64 60 L1083 60 L1083 537 L64 537 L64 60 Z"/>
      </clipPath>
    </defs>
    <g fill="white" text-rendering="geometricPrecision" shape-rendering="geometricPrecision" transform="translate(-64,-60)" stroke="white">
      <rect x="64" width="1019" height="477" y="60" clip-path="url(#clipPath2)" stroke="none"/>
    </g>
    <g fill="url(#linearGradient1)" text-rendering="geometricPrecision" shape-rendering="geometricPrecision" transform="matrix(1,0,0,1,-64,-60)" stroke="url(#linearGradient1)">
      <path d="M79 276 L262 276 L262 342 L79 342 Z" stroke="none" clip-path="url(#clipPath2)"/>
    </g>
    <g text-rendering="geometricPrecision" stroke-miterlimit="1.45" shape-rendering="geometricPrecision" transform="matrix(1,0,0,1,-64,-60)" stroke-linecap="butt">
      <path fill="none" d="M79 276 L262 276 L262 342 L79 342 Z" clip-path="url(#clipPath2)"/>
      <text x="146.957" xml:space="preserve" y="313.5352" clip-path="url(#clipPath2)" font-family="sans-serif" stroke="none">LogItem</text>
    </g>
    <g fill="url(#linearGradient2)" text-rendering="geometricPrecision" shape-rendering="geometricPrecision" transform="matrix(1,0,0,1,-64,-60)" stroke="url(#linearGradient2)">
      <path d="M320 276 L503 276 L503 342 L320 342 Z" stroke="none" clip-path="url(#clipPath2)"/>
    </g>
    <g text-rendering="geometricPrecision" stroke-miterlimit="1.45" shape-rendering="geometricPrecision" transform="matrix(1,0,0,1,-64,-60)" stroke-linecap="butt">
      <path fill="none" d="M320 276 L503 276 L503 342 L320 342 Z" clip-path="url(#clipPath2)"/>
      <text x="379.3086" xml:space="preserve" y="313.5352" clip-path="url(#clipPath2)" font-family="sans-serif" stroke="none">Transform </text>
    </g>
    <g fill="url(#linearGradient3)" text-rendering="geometricPrecision" shape-rendering="geometricPrecision" transform="matrix(1,0,0,1,-64,-60)" stroke="url(#linearGradient3)">
      <path d="M625 75 L1067.6666 75 L1067.6666 267 L625 267 Z" stroke="none" clip-path="url(#clipPath2)"/>
    </g>
    <g text-rendering="geometricPrecision" stroke-miterlimit="1.45" shape-rendering="geometricPrecision" transform="matrix(1,0,0,1,-64,-60)" stroke-linecap="butt">
      <path fill="none" d="M625 75 L1067.6666 75 L1067.6666 267 L625 267 Z" clip-path="url(#clipPath2)"/>
      <text x="631" xml:space="preserve" y="92.6016" clip-path="url(#clipPath2)" font-family="sans-serif" stroke="none">LogConsoleProcessor</text>
    </g>
    <g fill="url(#linearGradient4)" text-rendering="geometricPrecision" shape-rendering="geometricPrecision" transform="matrix(1,0,0,1,-64,-60)" stroke="url(#linearGradient4)">
      <path d="M625 330 L1067.6666 330 L1067.6666 522 L625 522 Z" stroke="none" clip-path="url(#clipPath2)"/>
    </g>
    <g text-rendering="geometricPrecision" stroke-miterlimit="1.45" shape-rendering="geometricPrecision" transform="matrix(1,0,0,1,-64,-60)" stroke-linecap="butt">
      <path fill="none" d="M625 330 L1067.6666 330 L1067.6666 522 L625 522 Z" clip-path="url(#clipPath2)"/>
      <text x="631" xml:space="preserve" y="347.6016" clip-path="url(#clipPath2)" font-family="sans-serif" stroke="none">LogFileProcessor</text>
    </g>
    <g fill="url(#linearGradient5)" text-rendering="geometricPrecision" shape-rendering="geometricPrecision" transform="matrix(1,0,0,1,-64,-60)" stroke="url(#linearGradient5)">
      <path d="M648 138 L831 138 L831 204 L648 204 Z" stroke="none" clip-path="url(#clipPath2)"/>
    </g>
    <g text-rendering="geometricPrecision" stroke-miterlimit="1.45" shape-rendering="geometricPrecision" transform="matrix(1,0,0,1,-64,-60)" stroke-linecap="butt">
      <path fill="none" d="M648 138 L831 138 L831 204 L648 204 Z" clip-path="url(#clipPath2)"/>
      <text x="712.248" xml:space="preserve" y="175.5352" clip-path="url(#clipPath2)" font-family="sans-serif" stroke="none">LogFilter </text>
    </g>
    <g fill="url(#linearGradient6)" text-rendering="geometricPrecision" shape-rendering="geometricPrecision" transform="matrix(1,0,0,1,-64,-60)" stroke="url(#linearGradient6)">
      <path d="M660 360 L843 360 L843 426 L660 426 Z" stroke="none" clip-path="url(#clipPath2)"/>
    </g>
    <g text-rendering="geometricPrecision" stroke-miterlimit="1.45" shape-rendering="geometricPrecision" transform="matrix(1,0,0,1,-64,-60)" stroke-linecap="butt">
      <path fill="none" d="M660 360 L843 360 L843 426 L660 426 Z" clip-path="url(#clipPath2)"/>
      <text x="724.248" xml:space="preserve" y="397.5352" clip-path="url(#clipPath2)" font-family="sans-serif" stroke="none">LogFilter </text>
    </g>
    <g fill="url(#linearGradient7)" text-rendering="geometricPrecision" shape-rendering="geometricPrecision" transform="matrix(1,0,0,1,-64,-60)" stroke="url(#linearGradient7)">
      <path d="M856 138 L1039 138 L1039 204 L856 204 Z" stroke="none" clip-path="url(#clipPath2)"/>
    </g>
    <g text-rendering="geometricPrecision" stroke-miterlimit="1.45" shape-rendering="geometricPrecision" transform="matrix(1,0,0,1,-64,-60)" stroke-linecap="butt">
      <path fill="none" d="M856 138 L1039 138 L1039 204 L856 204 Z" clip-path="url(#clipPath2)"/>
      <text x="906.417" xml:space="preserve" y="175.5352" clip-path="url(#clipPath2)" font-family="sans-serif" stroke="none">LogFormatter </text>
    </g>
    <g fill="url(#linearGradient8)" text-rendering="geometricPrecision" shape-rendering="geometricPrecision" transform="matrix(1,0,0,1,-64,-60)" stroke="url(#linearGradient8)">
      <path d="M868 360 L1051 360 L1051 426 L868 426 Z" stroke="none" clip-path="url(#clipPath2)"/>
    </g>
    <g text-rendering="geometricPrecision" stroke-miterlimit="1.45" shape-rendering="geometricPrecision" transform="matrix(1,0,0,1,-64,-60)" stroke-linecap="butt">
      <path fill="none" d="M868 360 L1051 360 L1051 426 L868 426 Z" clip-path="url(#clipPath2)"/>
      <text x="918.417" xml:space="preserve" y="397.5352" clip-path="url(#clipPath2)" font-family="sans-serif" stroke="none">LogFormatter </text>
    </g>
    <g fill="url(#linearGradient9)" text-rendering="geometricPrecision" shape-rendering="geometricPrecision" transform="matrix(1,0,0,1,-64,-60)" stroke="url(#linearGradient9)">
      <path d="M868 446 L1051 446 L1051 512 L868 512 Z" stroke="none" clip-path="url(#clipPath2)"/>
    </g>
    <g text-rendering="geometricPrecision" stroke-miterlimit="1.45" shape-rendering="geometricPrecision" transform="matrix(1,0,0,1,-64,-60)" stroke-linecap="butt">
      <path fill="none" d="M868 446 L1051 446 L1051 512 L868 512 Z" clip-path="url(#clipPath2)"/>
      <text x="907.9756" xml:space="preserve" y="483.5352" clip-path="url(#clipPath2)" font-family="sans-serif" stroke="none">FilePathGenerator</text>
    </g>
    <g text-rendering="geometricPrecision" stroke-miterlimit="1.45" shape-rendering="geometricPrecision" transform="matrix(1,0,0,1,-64,-60)" stroke-linecap="butt">
      <path fill="none" d="M262.0223 309 L312.0106 309" clip-path="url(#clipPath2)"/>
    </g>
    <g text-rendering="geometricPrecision" stroke-miterlimit="1.45" shape-rendering="geometricPrecision" transform="matrix(1,0,0,1,-64,-60)" stroke-linecap="butt">
      <path d="M320.0106 309 L308.0106 304 L311.0106 309 L308.0106 314 Z" stroke="none" clip-path="url(#clipPath2)"/>
      <path fill="none" d="M502.9777 309 L569 309 L569 171 L617.0286 171" clip-path="url(#clipPath2)"/>
      <path d="M625.0286 171 L613.0286 166 L616.0286 171 L613.0286 176 Z" clip-path="url(#clipPath2)" stroke="none"/>
      <path fill="none" d="M502.9777 309 L569 309 L569 426 L617.0286 426" clip-path="url(#clipPath2)"/>
      <path d="M625.0286 426 L613.0286 421 L616.0286 426 L613.0286 431 Z" clip-path="url(#clipPath2)" stroke="none"/>
      <path fill="none" d="M830.9824 171 L847.9871 171" clip-path="url(#clipPath2)"/>
      <path d="M855.9871 171 L843.9871 166 L846.9871 171 L843.9871 176 Z" clip-path="url(#clipPath2)" stroke="none"/>
      <path fill="none" d="M842.9824 393 L859.9871 393" clip-path="url(#clipPath2)"/>
      <path d="M867.9871 393 L855.9871 388 L858.9871 393 L855.9871 398 Z" clip-path="url(#clipPath2)" stroke="none"/>
    </g>
  </g>
</svg>
